<?xml version="1.0" encoding="UTF-8"?>
<svg xmlns="http://www.w3.org/2000/svg" width="214" height="214" viewBox="0 0 214 214">
  <defs>
    <clipPath id="circleClip">
      <circle cx="107" cy="107" r="107"/>
    </clipPath>
  </defs>
  <g clip-path="url(#circleClip)">
    <circle cx="107" cy="107" r="107" fill="#eef2f3"/>
    <g>
      <path class="cls-4" d="m9,152c4.8-2.39,11.62-6.62,17-14,5.59-7.66,6.21-14.01,10-27,3.06-10.48,6.46-22.15,12-32,2.55-4.53,12.14-20.39,31-30,20.67-10.53,41.59-8.01,50-7,17.33,2.08,21.94,7.33,36,6,13.17-1.25,23.43-7.21,30-12l21,14,18,53s10,63,9,74-33,86-33,86l-71,12s-50,8.06-77-3.47-21,.47-39-23.53S-2,218-1,191s10-39,10-39Z" fill="#fef7ed"/>
      <circle class="cls-2" cx="133" cy="166" r="65" fill="#f4c62b"/>
      <path d="m127.43,177.92c-17.77,0-26.36-15.16-26.46-15.35-.8-1.45-.27-3.28,1.18-4.07,1.45-.8,3.27-.27,4.07,1.17.42.75,10.39,18.06,31.94,10.19,1.55-.57,3.28.23,3.85,1.79.57,1.56-.23,3.28-1.79,3.85-4.69,1.71-8.95,2.42-12.78,2.42Z"/>
      <circle cx="107.93" cy="141.92" r="5.95"/>
      <path d="m147.73,162.46c-.69,0-1.37-.28-1.87-.83l-5.88-6.58c-.56-.62-.76-1.48-.56-2.29.21-.81.8-1.46,1.59-1.74l8.5-3c1.3-.46,2.73.22,3.19,1.53.46,1.3-.22,2.73-1.53,3.19l-4.98,1.75,3.39,3.79c.92,1.03.83,2.61-.2,3.53-.48.43-1.07.64-1.67.64Z"/>
    </g>
  </g>
</svg>