<?xml version="1.0" encoding="UTF-8"?>
<svg xmlns="http://www.w3.org/2000/svg" width="214" height="214" viewBox="0 0 214 214">
  <defs>
    <clipPath id="circleClip">
      <circle cx="107" cy="107" r="107"/>
    </clipPath>
  </defs>
  <g clip-path="url(#circleClip)">
    <circle cx="107" cy="107" r="107" fill="#eef2f3"/>
    <g transform="translate(0, 0)">
      <ellipse cx="107" cy="160" rx="107" ry="95" fill="#da673a"/>
      <circle cx="98" cy="127" r="6" fill="#000"/>
      <circle cx="123" cy="135" r="6" fill="#000"/>
      <path d="M104,164c-1.39,0-2.74-.2-4.06-.61-8.14-2.52-11.35-11.95-11.48-12.35-.52-1.57.33-3.27,1.91-3.79,1.57-.52,3.26.33,3.79,1.9.04.12,2.42,6.94,7.58,8.52,3.22.99,7.14-.25,11.63-3.68,1.32-1.01,3.2-.75,4.21.56,1.01,1.32.75,3.2-.56,4.21-4.58,3.49-8.94,5.25-13.01,5.25Z" fill="#000"/>
      <path d="M98,53s4,3,4.5-.5c.26-1.84-.38-3.9-.27-5.79.34-6.03,3.55-11.88,10.44-9.98,3.65,1.01,4.81,4.68,4.91,8.1.07,2.32-1.06,5.78-.04,7.91.59,1.24,3.13.09,3.96-.24,6.31-2.52,17.1-2.53,21.69,3.33,1.86,2.37,1.98,6.15.07,8.53-2.04,2.56-6.29,3.74-9.26,4.63,0,0-6.5-.5-2.5,4.5,3.05,3.82,3.74,11.34-2.06,12.96-7.67,2.15-14.21-5.23-18.94-9.96,0,0-3-4-8,0-4.65,3.72-12.25,12.93-19.08,8.8-6.83-4.14-1.12-11.99,3.02-15.53,1.44-1.23,2.91-3.32.23-4.08,0,0-13.44-4.93-8.81-14.55,0,0,5.13-10.13,20.13,1.87Z" fill="#82bc80"/>
    </g>
  </g>
</svg>