<?xml version="1.0" encoding="UTF-8"?>
<svg xmlns="http://www.w3.org/2000/svg" width="214" height="214" viewBox="0 0 214 214">
  <defs>
    <clipPath id="circleClip">
      <circle cx="107" cy="107" r="107"/>
    </clipPath>
  </defs>
  <g clip-path="url(#circleClip)">
    <circle cx="107" cy="107" r="107" fill="#eef2f3"/>
    <g transform="translate(-5.78, 0)">
      <path class="cls-4" d="m21.23,172.67c.78-2.58.69-5.36.74-8.07.61-29.69,20.24-56.5,45.06-72.79,19.59-12.85,43.34-21.09,57.05-40.08,1.92-2.65,3.71-5.59,6.56-7.2,3.83-2.16,8.55.03,9.08,4.46.3,2.53-.93,8.13,3.3,7.76,2.68-.24,2.63-3.94,3.63-5.72,1.38-2.48,5.26-4.26,7.52-1.85,1.54,1.64,1.77,4.08,1.82,6.33.05,2.5,2.8,3.72,4.46,1.58s.75-6.03,3.51-7.73c3.84-2.36,7.11,2.24,8.81,5.11,2.36,3.99,4.28,8.18,6.79,12.1,5.83,9.12,12.98,17.41,21.38,24.26,6.28,5.12,13.23,9.41,20.62,12.73,1.74.78,3.55,1.55,4.83,2.97,1.23,1.37,1.82,3.18,2.37,4.93,4.75,15.01,9.5,30.01,14.26,45.02.6,1.88,1.2,3.81,1.12,5.79-.09,2.39-1.17,4.61-2.22,6.76-3.79,7.7-7.57,15.4-11.36,23.11-2.15,4.37-4.33,8.79-7.42,12.56-2.68,3.28-5.99,5.98-9.27,8.66-5.73,4.68-11.46,9.36-17.18,14.04-1.93,1.57-3.89,3.17-6.16,4.17-2.96,1.3-6.27,1.53-9.5,1.72-45.03,2.74-90.15,3.97-135.26,3.69-2.64-.02-5.36-.05-7.79-1.07-2.1-.88-3.83-2.42-5.52-3.94-10.82-9.71-21.65-19.41-32.47-29.12,5.83-7.88,11.65-15.77,17.48-23.65,1.41-1.91,2.85-3.87,3.62-6.12.05-.14.09-.28.13-.41Z" fill="#c09b67"/>
      <path class="cls-2" d="m51.47,204.46s-1.38-35.91,15.31-53.46c0,0-17,38-1.31,57.86l-14-4.4Z" fill="#ad885a"/>
      <path class="cls-2" d="m104.47,172.46s-12.69,24.54-1,44h-13.43s.73-30.46,14.43-44Z" fill="#ad885a"/>
      <path class="cls-2" d="m152.47,182.46s8,14,3,30l8.87-3.6s1.13-14.4-11.87-26.4Z" fill="#ad885a"/>
      <path d="m123.17,145.54c-10.27,0-17.65-5.9-17.77-6-1.28-1.05-1.47-2.94-.42-4.22,1.05-1.28,2.93-1.47,4.21-.42.62.5,14.7,11.55,30.01-2.18,1.23-1.11,3.13-1,4.24.23,1.11,1.23,1,3.13-.23,4.24-7.08,6.35-14.05,8.36-20.05,8.36Z"/>
      <circle cx="93.37" cy="120.77" r="5.4"/>
      <circle cx="152.95" cy="116.78" r="5.4"/>
    </g>
  </g>
</svg>