<svg viewBox="0 0 80.18 98.78" xmlns="http://www.w3.org/2000/svg">
  <defs>
    <style>
      .cls-1 {fill: #f7abaa;}
      .cls-2 {fill: #4d2616;}
      .cls-3 {fill: #e96663;}
      .cls-4 {fill: #75b644;}
      .cls-5 {fill: #e52f2d;}
      .cls-6 {fill: #d40e0f;}
    </style>
  </defs>
  <g>
    <path class="cls-6" d="M55.56,97.58c-5.69,2.28-6.55.8-11.84-.32-3.1-.65-4.09-.7-7.2,0-3.69.83-4.55,1.95-8.72,1.28-1-.16-2.15-.87-3.12-.96l-8-5.28c.43.18.97.18,1.44.16.88.64.47.12,1.04.32,34.08,11.91,64.27-28.43,47.42-58.78l-5.12-6.8c16.36,4.43,20.93,25.12,17.75,39.75-2.46,11.34-12.66,26.21-23.67,30.63Z"/>
    <path class="cls-3" d="M29.49,26.73l-6,1.12C-2.83,35.85-1.3,78.4,18.14,92.46c-.47.02-1.01.02-1.44-.16-4.39-1.81-12.4-15.03-14.07-19.59-7.42-20.22.72-49.63,26.87-45.98Z"/>
    <path class="cls-5" d="M61.48,27.21l5.12,6.8c16.85,30.35-13.34,70.69-47.42,58.78-.57-.2-.16.32-1.04-.32C-1.3,78.4-2.83,35.85,23.49,27.85l6-1.12c2.73.38,5.38,1.29,8.16,1.44.15.61.2,1.2.32,1.76l-8-.88c2.53,1.68,5.48,2.41,8.48,2.64.37.03.75,0,1.12,0,3.96.1,7.32-.63,10.72-2.8l-10.4,1.04c0-.44-.12-1.11-.16-1.6,7.68-.39,14-3.22,21.75-1.12Z"/>
    <path class="cls-1" d="M16.3,34.88c4.37-.87,1.17,7.27-.4,9.04-3.13,3.53-5.11,1.45-4.16-2.72.38-1.65,2.82-5.97,4.56-6.32Z"/>
    <path class="cls-1" d="M11.18,47.2c3.57-.82,1.42,6.37-1.44,5.44-1.73-.57-.22-5.06,1.44-5.44Z"/>
    <path class="cls-6" d="M39.57,31.68c.4-.55.33-1.12.32-1.76l10.4-1.04c-3.4,2.17-6.75,2.9-10.72,2.8Z"/>
    <path class="cls-6" d="M37.97,29.92c.1.48.43,1.17.48,1.76-3-.23-5.95-.96-8.48-2.64l8,.88Z"/>
    <path class="cls-4" d="M62.84.02c1.82-.07,3.62.11,5.44.16.08,5.81-2.4,13-6.32,17.51-4.3,4.96-11.02,7.21-17.51,6.32-3.62-.5-3.8-.42-2-3.28,3.41-5.42,9.2-10.44,14.71-13.59-7.15,2.65-13.37,7.94-17.03,14.63C37.44,7.76,50.59.49,62.84.02Z"/>
    <path class="cls-4" d="M16.46,14.41c5.53-.66,10.6,2.59,11.76,8.08-5.89,3.08-12-1.99-13.43-7.68.04-.08,1.48-.38,1.68-.4Z"/>
    <path class="cls-2" d="M39.73,28.33c.04.49.15,1.16.16,1.6.01.63.08,1.2-.32,1.76-.37,0-.75.03-1.12,0-.05-.59-.38-1.28-.48-1.76-.12-.56-.17-1.15-.32-1.76-1.61-6.53-4.38-11.04-9.2-15.67-1.91-1.83-5.46-2.82-1.6-4.96,3-1.66,4.23.12,6.16,2.48,3.97,4.85,6.15,12.15,6.72,18.31Z"/>
    <path class="cls-2" d="M29.09,6.89c.54.03,3.14,2.73,3.6,3.28,3.69,4.47,6.36,12.85,6.88,18.39.04.43.12,2.83-.24,2.96-1.02-.05-.46-1.89-.56-2.48-.44-2.47-1.33-6.51-2.24-8.64-.99-2.3-3.81-6.35-6.16-8.24-1.46-1.17-3.46-2.08-5.04-3.12-.07-.37,3.29-2.19,3.76-2.16Z"/>
  </g>
</svg>