<?xml version="1.0" encoding="UTF-8"?>
<svg id="_레이어_2" data-name="레이어 2" xmlns="http://www.w3.org/2000/svg" xmlns:xlink="http://www.w3.org/1999/xlink" viewBox="0 0 245.52 276.76">
  <defs>
    <style>
      .cls-1 {
        fill: #ea9c00;
      }

      .cls-2 {
        fill: #eef2f3;
      }

      .cls-3 {
        clip-path: url(#clippath);
      }

      .cls-4 {
        fill: #2e512e;
      }

      .cls-5 {
        fill: #0e620d;
      }
    </style>
    <clipPath id="clippath">
      <circle class="cls-2" cx="138.52" cy="107" r="107"/>
    </clipPath>
  </defs>
  <g id="_레이어_1-2" data-name="레이어 1">
    <g>
      <g>
        <circle class="cls-2" cx="138.52" cy="107" r="107"/>
        <g class="cls-3">
          <path class="cls-4" d="m126.52,94.11c4.26-.17,11.29-10.69,13.07-13.75,2.58-4.43,4.06-9.5,3.24-14.63-.6-3.78-3.26-6.64-5.13-9.82-2.33-3.95-1.69-6.34-2.05-10.6-1.16-13.71-10.77-21.6-24.38-20.85-5.24.29-10.42,1.27-15.64,1.77-1.72.16-10.31-.08-11.1,1.78,0,0-9.99,23.46-10.01,23.51-.92,2.16,1.37,7.3,2.18,9.17,2.4,5.49,6.93,9.18,11.97,12.16,5.87,3.47,3.16,6.92,5.48,12.57,1.43,3.48,6.07,9.76,10.45,9.58,0,0,21.92-.89,21.93-.89Z"/>
          <path class="cls-4" d="m8.64,51.17s22.86-27.88,42-5.09c0,0,26.01-2.61,23.89,20.44l-.46,31.57-28.17,9.04s-17.47-1.84-21.33-20.47c0,0-15.65.8-18.97-13.75l3.05-21.74Z"/>
          <path class="cls-5" d="m99.52,92.11c4.45-.79,9.52-9.17,11.02-12.73,2.06-4.88,2.2-10.2.67-15.25-1.08-3.57-3.79-6.38-5.4-9.68-2.01-4.12-.89-6.1-.2-10.23,2.83-16.8-8.35-28.39-24.12-31.34-3.7-.69-32.17-6.7-32.61-5.77,0,0-17.33,35.93-17.36,36-1.26,2.62.67,8.59,1.45,11.07,1.73,5.5,5.08,10.13,9.5,13.78,2.23,1.84,6.09,3.31,7.29,6.29,1.72,4.26-.06,9.48,1.96,14.15,1.22,2.81,6.65,11,10.46,10.32.13-.02,37.26-6.6,37.34-6.62Z"/>
          <path class="cls-1" d="m125.03,272.79c-48.99,15.52-102.62-15.85-119.79-70.07-17.17-54.21,9.29-106.2,58.28-121.72,29.64-9.39,62.36-8.06,86.69,13.12,55.06,47.96,51.39,154.41-25.18,178.67Z"/>
        </g>
      </g>
      <g>
        <path d="m105.22,160.44c-15.95,0-25.56-12.18-25.69-12.34-1.01-1.31-.76-3.2.55-4.21,1.31-1.01,3.19-.76,4.2.54.59.76,14.22,17.76,36.14,5.71,1.45-.8,3.28-.27,4.07,1.18.8,1.45.27,3.28-1.19,4.07-6.67,3.66-12.74,5.04-18.09,5.04Z"/>
        <circle cx="70.18" cy="123.42" r="6.44"/>
        <circle cx="140.39" cy="134.85" r="6.44"/>
      </g>
    </g>
  </g>
</svg>