<svg width="109" height="108" viewBox="0 0 109 108" fill="none" xmlns="http://www.w3.org/2000/svg">
<g clip-path="url(#clip0_231_5705)">
<path d="M7.4439 18.166H5.31707C2.38053 18.166 0 20.5582 0 23.5091V25.6463C0 28.5973 2.38053 30.9894 5.31707 30.9894H7.4439C10.3804 30.9894 12.761 28.5973 12.761 25.6463V23.5091C12.761 20.5582 10.3804 18.166 7.4439 18.166Z" fill="#EBEBEB"/>
<path d="M7.4439 36.332H5.31707C2.38053 36.332 0 38.7242 0 41.6751V43.8124C0 46.7633 2.38053 49.1555 5.31707 49.1555H7.4439C10.3804 49.1555 12.761 46.7633 12.761 43.8124V41.6751C12.761 38.7242 10.3804 36.332 7.4439 36.332Z" fill="#CCCCCC"/>
<path d="M7.4439 54.5H5.31707C2.38053 54.5 0 56.8922 0 59.8431V61.9803C0 64.9312 2.38053 67.3234 5.31707 67.3234H7.4439C10.3804 67.3234 12.761 64.9312 12.761 61.9803V59.8431C12.761 56.8922 10.3804 54.5 7.4439 54.5Z" fill="#B5B5B5"/>
<path d="M7.4439 72.666H5.31707C2.38053 72.666 0 75.0582 0 78.0091V80.1463C0 83.0973 2.38053 85.4894 5.31707 85.4894H7.4439C10.3804 85.4894 12.761 83.0973 12.761 80.1463V78.0091C12.761 75.0582 10.3804 72.666 7.4439 72.666Z" fill="#F5F5F5"/>
<path d="M84.5388 18.166H26.5827C23.6462 18.166 21.2656 20.5582 21.2656 23.5091V25.6463C21.2656 28.5973 23.6462 30.9894 26.5827 30.9894H84.5388C87.4753 30.9894 89.8559 28.5973 89.8559 25.6463V23.5091C89.8559 20.5582 87.4753 18.166 84.5388 18.166Z" fill="#EBEBEB"/>
<path d="M84.5388 36.332H26.5827C23.6462 36.332 21.2656 38.7242 21.2656 41.6751V43.8124C21.2656 46.7633 23.6462 49.1555 26.5827 49.1555H84.5388C87.4753 49.1555 89.8559 46.7633 89.8559 43.8124V41.6751C89.8559 38.7242 87.4753 36.332 84.5388 36.332Z" fill="#CCCCCC"/>
<path d="M84.5388 54.5H26.5827C23.6462 54.5 21.2656 56.8922 21.2656 59.8431V61.9803C21.2656 64.9312 23.6462 67.3234 26.5827 67.3234H84.5388C87.4753 67.3234 89.8559 64.9312 89.8559 61.9803V59.8431C89.8559 56.8922 87.4753 54.5 84.5388 54.5Z" fill="#B5B5B5"/>
<path d="M84.5388 72.666H26.5827C23.6462 72.666 21.2656 75.0582 21.2656 78.0091V80.1463C21.2656 83.0973 23.6462 85.4894 26.5827 85.4894H84.5388C87.4753 85.4894 89.8559 83.0973 89.8559 80.1463V78.0091C89.8559 75.0582 87.4753 72.666 84.5388 72.666Z" fill="#F5F5F5"/>
<path d="M108.135 102.315L95.358 89.4756C98.4366 85.3614 100.096 80.3496 100.09 75.2042C100.09 62.0602 89.4454 51.3633 76.3654 51.3633C63.2854 51.3633 52.6406 62.0602 52.6406 75.2042C52.6406 88.3482 63.2854 99.0451 76.3654 99.0451C81.4858 99.0504 86.4732 97.3834 90.5673 94.2897L103.344 107.129C104.743 108.385 106.891 108.262 108.14 106.857C109.294 105.564 109.294 103.603 108.14 102.31L108.135 102.315ZM59.4146 75.2042C59.4146 65.8003 67.002 58.1757 76.3601 58.1757C85.7181 58.1757 93.3056 65.8003 93.3056 75.2042C93.3056 84.608 85.7181 92.2326 76.3601 92.2326C67.0074 92.2219 59.4252 84.6027 59.4146 75.2042Z" fill="#3BD273"/>
</g>
<defs>
<clipPath id="clip0_231_5705">
<rect width="109" height="108" fill="white"/>
</clipPath>
</defs>
</svg>
