<?xml version="1.0" encoding="UTF-8"?>
<svg id="_레이어_2" data-name="레이어 2" xmlns="http://www.w3.org/2000/svg" width="40.64mm" height="28.95mm" viewBox="0 0 115.2 82.07">
  <defs>
    <style>
      .cls-1 {
        fill: #fff;
      }
    </style>
  </defs>
  <g id="_레이어_1-2" data-name="레이어 1">
    <g>
      <g>
        <path class="cls-1" d="M0,28.65c.7-.79,1.35-1.51,1.95-2.18.6-.67,1.13-1.34,1.6-2.01.47-.68.88-1.4,1.23-2.18.35-.77.63-1.67.85-2.68.22-1.02.37-2.19.46-3.52.09-1.33.1-2.89.03-4.68,1.38.09,2.67.14,3.9.16,1.22.02,2.42.01,3.6-.03.02,1.64-.16,3.21-.54,4.73-.38,1.52-.94,2.97-1.69,4.37.7,1.16,1.55,2.21,2.55,3.14,1,.94,2.17,1.69,3.5,2.26l-.72,2.26c-.68-.04-1.4-.17-2.18-.38-.77-.21-1.54-.46-2.29-.75-.75-.29-1.47-.63-2.14-1-.68-.37-1.28-.74-1.8-1.11-1.7,1.9-3.78,3.66-6.22,5.27l-2.1-1.67ZM17.62,42.04c.15-1.11.26-2.16.31-3.13s.07-1.98.05-3.03c-1.31.04-2.66.07-4.06.07s-2.81-.04-4.22-.13l.33-5.01c2.27.24,4.62.35,7.06.34,2.43-.01,4.76-.14,6.99-.38-.18,2.07-.48,4.11-.9,6.11-.43,2-1.14,3.89-2.15,5.68l-3.4-.52ZM26.91,11.43c.02,1.55,0,3.09-.05,4.63s-.16,3.07-.33,4.58-.41,3.02-.74,4.52c-.33,1.5-.75,2.97-1.28,4.44l-3.8-.59c.35-2.88.49-5.78.43-8.71-.07-2.92-.28-5.89-.66-8.91l6.42.03Z"/>
        <path class="cls-1" d="M31.4,12.05c1.11.2,2.31.36,3.59.49,1.28.13,2.56.23,3.86.29s2.59.11,3.86.13c1.28.02,2.47.01,3.58-.03-.04,1.79-.32,3.67-.83,5.65-.51,1.98-1.3,3.95-2.37,5.93-1.07,1.98-2.44,3.91-4.11,5.81-1.67,1.9-3.67,3.68-6.01,5.34l-2.1-1.67c1.59-1.88,2.86-3.59,3.8-5.14.94-1.55,1.66-2.97,2.16-4.26.5-1.29.83-2.46,1-3.5.16-1.05.27-2.01.31-2.88-.52,0-1.15-.02-1.87-.07-.72-.04-1.45-.11-2.18-.21s-1.42-.22-2.06-.38c-.64-.15-1.16-.33-1.55-.52l.92-4.98ZM56.18,11.17c.13,4.61,0,8.99-.38,13.15s-1.06,8.13-2.05,11.9l-3.8-.52c.46-4.13.67-8.21.62-12.25-.04-4.04-.32-8.1-.82-12.18l6.42-.1Z"/>
        <path class="cls-1" d="M59.13,15.39c.81.04,1.63.08,2.46.1.83.02,1.67.03,2.52.03v-1.16c0-.36-.01-.73-.03-1.11-.02-.38-.04-.77-.07-1.18-.02-.4-.04-.86-.07-1.36l6.02.03c0,.48,0,.92-.02,1.31-.01.39-.03.77-.05,1.13-.02.36-.05.73-.08,1.1-.03.37-.08.76-.15,1.18,1.92-.07,3.8-.16,5.63-.29l.39,4.42c-2.62.61-5.39.99-8.3,1.13-2.91.14-5.77.13-8.56-.05l.29-5.27ZM62.7,26.52c0-.65.13-1.27.38-1.85.25-.58.59-1.08,1.01-1.51.43-.43.93-.76,1.51-1.02.58-.25,1.19-.38,1.85-.38s1.27.13,1.85.38c.58.25,1.08.59,1.51,1.02.42.43.76.93,1.01,1.51.25.58.38,1.19.38,1.85s-.12,1.27-.38,1.85c-.25.58-.59,1.08-1.01,1.51-.43.43-.93.76-1.51,1.02-.58.25-1.19.38-1.85.38s-1.27-.13-1.85-.38c-.58-.25-1.08-.59-1.51-1.02-.42-.43-.76-.93-1.01-1.51-.25-.58-.38-1.2-.38-1.85ZM66.6,26.52c0,.24.08.44.25.61.16.16.37.25.61.25s.44-.08.61-.25c.16-.16.25-.37.25-.61s-.08-.44-.25-.61c-.16-.16-.37-.25-.61-.25s-.44.08-.61.25c-.16.16-.25.37-.25.61ZM73.86,32.61c-.04.5-.07.94-.08,1.33-.01.38-.02.75-.03,1.11-.01.36-.01.73,0,1.11.01.38.04.81.08,1.29,1.38.02,2.77-.06,4.17-.23,1.41-.17,2.93-.45,4.57-.82l.59,2.46c-2.25,1.16-4.63,2.01-7.14,2.55-2.51.55-5.17.84-7.99.88-.35-1.77-.55-3.43-.61-4.98-.05-1.55-.05-3.12.02-4.71h6.42ZM83.88,12.97c.02,1.57.03,2.95.02,4.14-.01,1.19-.05,2.3-.12,3.32.57-.02,1.14-.04,1.72-.07.58-.02,1.17-.05,1.79-.1l.1,4.58c-.72.11-1.43.21-2.13.31-.7.1-1.4.17-2.1.21-.17.98-.4,2.01-.67,3.08-.27,1.07-.59,2.29-.97,3.67l-3.93-.59c.13-1.4.23-2.77.31-4.13.08-1.35.12-2.76.13-4.22s-.03-3.03-.11-4.7c-.09-1.67-.24-3.52-.46-5.55l6.42.03Z"/>
      </g>
      <g>
        <path class="cls-1" d="M38.98,63.12c-1.61-.86-3.64-.45-6.21.27-2.68.69-5.67.89-7.31-.41v-14.45h5.25v10.37c.69-.1,1.41-.31,2.13-.48,2.4-.62,4.5-.82,6.15-.1v4.81ZM52.99,69.54v2.2c0,6.56-4.53,10.33-10.09,10.33s-10.06-3.6-10.06-9.34c0-4.26,2.92-6.42,5.63-6.94,3.54-.69,5.94,1.06,6.04,2.82-4.08-1.13-6.11,1.34-6.11,4.12,0,2.37,1.68,4.12,4.5,4.12s4.5-2.06,4.5-5.12v-2.2h5.6ZM40.35,48.35h5.25v4.94h2.09v-5.29h5.25v20.29h-5.25v-10.37h-2.09v6.04h-5.25v-15.62Z"/>
        <path class="cls-1" d="M73.96,53.3h-.31c-1.65,0-3.16,1.85-4.88,4.05,1.2,1.41,2.68,2.3,4.7,2.3h1.34v4.94h-1.37c-3.85,0-5.84-1.54-7.48-3.81-2.03,2.27-4.46,4.12-7.62,4.12h-2.09v-4.94h1.92c2.68,0,4.94-3.74,8-6.66h-8.72v-4.94h16.51v4.94ZM82.41,69.88v2.03c0,6.28-4.6,10.16-9.99,10.16s-9.96-3.67-9.96-9.48c0-4.15,2.75-6.42,5.42-6.94,3.57-.69,5.94,1.1,6.08,2.85-3.78-1.13-5.94,1.41-5.94,4.09,0,2.27,1.61,4.26,4.39,4.26s4.39-1.99,4.39-4.94v-2.03h5.6ZM76.81,48.01h5.56v6.83h3.85v4.94h-3.85v8.86h-5.56v-20.63Z"/>
        <path class="cls-1" d="M88.28,71.49v-4.63h8.1v-8.69h5.56v8.69h13.25c0,3.74-1.24,4.63-4.67,4.63h-22.25ZM90.68,48.35h21.63v4.88c0,1.79,0,7.93-.62,10.44h-5.46c.48-2.51.65-8.58.65-10.37h-16.21v-4.94Z"/>
      </g>
      <ellipse class="cls-1" cx="23.74" cy="7.42" rx="5.83" ry="7.42"/>
    </g>
  </g>
</svg>